<svg xmlns="http://www.w3.org/2000/svg" viewBox="0 0 427.43 440.01"><defs><style>.cls-1{fill:#1f1f1f;}.cls-2{fill:#0cad79;}.cls-3{fill:#d7d7d6;}</style></defs><title>1Recurso 2</title><g id="Capa_2" data-name="Capa 2"><g id="Capa_1-2" data-name="Capa 1"><path class="cls-1" d="M0,220.29V81.51c0-20.23,4.38-39,18-54.76C34.51,7.72,55.78.14,80.34.14q100,0,200,0c24.36,0,48.73-.42,73.07.24,35.69,1,63.25,23.6,71.08,57.59a77.34,77.34,0,0,1,2.26,16.76c.65,97.68,1.05,195.37-.09,293-.37,31.88-22.23,59.41-52.4,68.64-9.74,3-19.82,3.57-29.93,3.57q-132.13,0-264.27-.1c-37.4-.09-65.06-19-75.82-51A79.21,79.21,0,0,1,.17,363.5q0-71.61,0-143.21Zm153.46-109c-6.34.19-10,4.51-10,12.36q-.12,95.16,0,190.34c0,11.8,7.22,15.88,17.57,10.14,7.53-4.17,14.8-8.78,22.22-13.13q69.67-40.83,139.36-81.63c9.84-5.76,10.35-14.5,1-20q-81.37-47.83-162.81-95.53A16.91,16.91,0,0,0,153.46,111.32Zm31.4,224.73c.14.52.28,1,.41,1.55q89.42,0,178.81-.07c7.3,0,10.07-3.67,10-11.57s-3-10.79-11.48-10.81q-68.54-.11-137.06,0c-1.93,0-3.89-.33-5.75.75Q202.33,326,184.86,336.05Zm1.79-234.71-.3,1.6c3.55,2.11,7.36,3.88,10.6,6.38,16.15,12.44,34.24,15.58,54.43,14.92,36.84-1.21,73.74-.33,110.61-.38,9,0,12-2.86,12.08-11,.11-8.75-2.64-11.42-12.19-11.43q-82.23-.11-164.46-.11Zm89.21,181.33c1.19,1.8,2.5,1.29,3.61,1.29q41.63,0,83.23-.11c8.46,0,11.36-3,11.29-10.8-.08-8.69-2.73-11.5-11.38-11.54-15.22-.07-30.44,0-45.66,0-2.19,0-4.35-.19-6.42,1C299,269.3,287.45,276,275.86,282.67Zm1.78-127.84-.17,1.27q16.47,9.68,32.95,19.34a10.53,10.53,0,0,0,5.51,1.77c16.21-.07,32.43,0,48.64-.06,6.78-.05,9.46-4.08,9.51-10.51.06-7.78-2.37-11.67-8.95-11.72C336,154.7,306.81,154.83,277.64,154.83ZM127.24,337.52c-4.12-6.41-6.26-12.12-6.66-18.34-.19-3-1.18-4.24-4.44-4.21-17.93.13-35.87-.09-53.8.1-6.7.06-9.34,4.31-9.37,10.71,0,7.68,2.46,11.57,9.1,11.65C83.37,337.68,104.68,337.52,127.24,337.52Zm-.66-236.12c-22.47,0-44-.23-65.54.13-7.16.12-8,5.84-8,11.74,0,6.52,3,10.46,9.59,10.53,17.69.2,35.39.1,53.09.12,2.21,0,4.49.33,4.54-3.1C120.35,114.1,122.63,108,126.58,101.4Zm-37,182.51h14c17.91,0,17.79,0,17-18-.17-3.58-1.25-4.58-4.72-4.55-17.7.16-35.4,0-53.09.17-7.11.08-9.82,3.69-9.67,11.74.13,7.58,2.76,10.49,10,10.59C71.9,284,80.75,283.92,89.6,283.91Zm.05-53.29v0H102.9c18.21,0,18,0,17.68-17.94-.09-4.09-1.48-4.81-5.12-4.78-17.41.15-34.83,0-52.25.1-7.48.06-10.16,3.23-10.16,11.22s2.74,11.17,10.11,11.33C72,230.76,80.82,230.62,89.65,230.62Zm-.53-53.43v0h14.73c17.23,0,17.1,0,16.75-17.39-.08-3.75-.93-5.12-4.89-5.08-17.42.2-34.85,0-52.28.16-7.53.06-10.24,2.93-10.34,10.21-.12,8.38,2.69,11.9,10.26,12.09C71.93,177.35,80.53,177.19,89.12,177.19Zm262.32,53.63c7.5-1.52,15.6,3.14,21-4.27a12.45,12.45,0,0,0,.23-14c-5.33-8-13.74-3.26-21.47-4.83C353.72,215.81,353.54,222.82,351.44,230.82Z"/><path class="cls-2" d="M153.46,111.32a16.91,16.91,0,0,1,7.31,2.56q81.4,47.77,162.81,95.53c9.34,5.49,8.83,14.23-1,20Q252.91,270.23,183.21,311c-7.42,4.35-14.69,9-22.22,13.13-10.35,5.74-17.56,1.66-17.57-10.14q-.15-95.17,0-190.34C143.45,115.83,147.12,111.51,153.46,111.32Zm35.78,107.75h-.16c0,10.08.07,20.15,0,30.23,0,4,1.38,5,4.78,2.95q25.63-15.28,51.26-30.59c3.33-2,3.59-3.45,0-5.53q-25.2-14.58-50.23-29.44c-4.87-2.91-5.74-1.05-5.66,3.63C189.35,199.9,189.24,209.49,189.24,219.07Z"/><path class="cls-3" d="M184.86,336.05q17.44-10.08,34.89-20.19c1.86-1.08,3.82-.75,5.75-.75q68.52,0,137.06,0c8.44,0,11.37,3,11.48,10.81s-2.66,11.56-10,11.57q-89.4.18-178.81.07C185.14,337.08,185,336.57,184.86,336.05Z"/><path class="cls-3" d="M186.65,101.34h10.77q82.23,0,164.46.11c9.55,0,12.3,2.68,12.19,11.43-.11,8.12-3.1,11-12.08,11-36.87,0-73.77-.83-110.61.38-20.19.66-38.28-2.48-54.43-14.92-3.24-2.5-7-4.27-10.6-6.38Z"/><path class="cls-3" d="M275.86,282.67C287.45,276,299,269.3,310.53,262.56c2.07-1.22,4.23-1,6.42-1,15.22,0,30.44-.09,45.66,0,8.65,0,11.3,2.85,11.38,11.54.07,7.85-2.83,10.77-11.29,10.8q-41.61.15-83.23.11C278.36,284,277.05,284.47,275.86,282.67Z"/><path class="cls-3" d="M277.64,154.83c29.17,0,58.33-.13,87.49.09,6.58.05,9,3.94,8.95,11.72-.05,6.43-2.73,10.46-9.51,10.51-16.21.1-32.43,0-48.64.06a10.53,10.53,0,0,1-5.51-1.77q-16.49-9.65-32.95-19.34Z"/><path class="cls-3" d="M127.24,337.52c-22.56,0-43.87.16-65.17-.09-6.64-.08-9.14-4-9.1-11.65,0-6.4,2.67-10.65,9.37-10.71,17.93-.19,35.87,0,53.8-.1,3.26,0,4.25,1.23,4.44,4.21C121,325.4,123.12,331.11,127.24,337.52Z"/><path class="cls-3" d="M126.58,101.4c-4,6.56-6.23,12.7-6.33,19.42,0,3.43-2.33,3.1-4.54,3.1-17.7,0-35.4.08-53.09-.12-6.59-.07-9.55-4-9.59-10.53,0-5.9.85-11.62,8-11.74C82.57,101.17,104.11,101.4,126.58,101.4Z"/><path class="cls-3" d="M89.6,283.91c-8.85,0-17.7.1-26.54,0-7.22-.1-9.85-3-10-10.59-.15-8.05,2.56-11.66,9.67-11.74,17.69-.19,35.39,0,53.09-.17,3.47,0,4.55,1,4.72,4.55.84,18,1,18-17,18Z"/><path class="cls-3" d="M89.65,230.62c-8.83,0-17.66.14-26.49,0-7.37-.16-10.11-3.41-10.11-11.33S55.73,208.09,63.21,208c17.42-.13,34.84.05,52.25-.1,3.64,0,5,.69,5.12,4.78.37,17.94.53,17.94-17.68,17.94H89.65Z"/><path class="cls-3" d="M89.12,177.19c-8.59,0-17.19.16-25.77-.05C55.78,177,53,173.43,53.09,165.05c.1-7.28,2.81-10.15,10.34-10.21,17.43-.13,34.86,0,52.28-.16,4,0,4.81,1.33,4.89,5.08.35,17.41.48,17.41-16.75,17.39H89.12Z"/><path class="cls-3" d="M351.44,230.82c2.1-8,2.28-15-.23-23.08,7.73,1.57,16.14-3.18,21.47,4.83a12.45,12.45,0,0,1-.23,14C367,234,358.94,229.3,351.44,230.82Z"/><path class="cls-1" d="M189.24,219.07c0-9.58.11-19.17-.05-28.75-.08-4.68.79-6.54,5.66-3.63q25,14.9,50.23,29.44c3.59,2.08,3.33,3.55,0,5.53q-25.67,15.24-51.26,30.59c-3.4,2-4.82,1-4.78-2.95.11-10.08,0-20.15,0-30.23Z"/></g></g></svg>